<?xml version="1.0" standalone="no"?><!DOCTYPE svg PUBLIC "-//W3C//DTD SVG 1.1//EN" "http://www.w3.org/Graphics/SVG/1.1/DTD/svg11.dtd"><svg t="1686703392526" class="icon" viewBox="0 0 1024 1024" version="1.1" xmlns="http://www.w3.org/2000/svg" p-id="2479" xmlns:xlink="http://www.w3.org/1999/xlink" width="200" height="200"><path d="M917.333333 0v774.592H247.082667c-42.218667 0-76.693333 32.149333-79.018667 71.637333l-0.149333 4.266667v35.626667c0 40 33.066667 73.557333 74.666666 75.818666l4.501334 0.128H917.333333V1024H247.082667C171.818667 1024 109.610667 965.12 106.773333 891.413333L106.666667 886.122667V173.504C106.666667 79.701333 183.253333 3.2 277.717333 0.106667L283.690667 0H917.333333z m-64 65.365333H285.504c-61.568 0-111.936 47.786667-114.709333 106.602667L170.666667 177.024 170.666667 740.757333l1.386666-0.917333a139.328 139.328 0 0 1 71.829334-23.104l5.333333-0.085333L853.333333 716.586667V65.365333z" fill="#e6e6e6" p-id="2480"></path><path d="M298.666667 43.584v718.976H234.666667V43.584h64zM917.333333 849.706667v65.365333H234.666667V849.706667h682.666666z" fill="#e6e6e6" p-id="2481"></path></svg>