<?xml version="1.0" standalone="no"?><!DOCTYPE svg PUBLIC "-//W3C//DTD SVG 1.1//EN" "http://www.w3.org/Graphics/SVG/1.1/DTD/svg11.dtd"><svg t="1686703262470" class="icon" viewBox="0 0 1024 1024" version="1.1" xmlns="http://www.w3.org/2000/svg" p-id="3556" xmlns:xlink="http://www.w3.org/1999/xlink" width="200" height="200"><path d="M933.479598 907.717315 885.028229 888.153525C878.111738 885.362975 870.225142 886.458835 864.326662 891.033899 854.104627 898.974391 842.822662 905.54356 830.798147 910.573736 823.977469 913.424168 819.162873 919.657993 818.126896 926.975701L810.845118 978.511046 736.871598 978.511046 729.577843 926.975701C728.541867 919.657993 723.733258 913.424168 716.91258 910.573736 705.157539 905.663326 693.845633 899.064215 683.294241 890.96204 677.40175 886.446858 669.575036 885.386929 662.688487 888.153525L614.225142 907.717315 577.301258 843.738274 618.434919 811.467303C624.219621 806.92218 627.201796 799.676332 626.291574 792.376589 625.309492 784.50197 624.872346 778.495701 624.872346 772.890648 624.872346 767.273619 625.309492 761.261361 626.291574 753.39273 627.201796 746.092987 624.219621 738.847139 618.434919 734.302016L577.301258 702.037034 614.225142 638.057993 662.688487 657.609806C669.598989 660.406344 677.485586 659.310484 683.384065 654.729432 693.618077 646.78894 704.894054 640.219771 716.900604 635.20756 723.72727 632.357127 728.535878 626.123303 729.577843 618.799607L736.865609 567.258274 810.952908 567.258274 818.240674 618.799607C819.27665 626.117315 824.091247 632.351139 830.917913 635.201572 842.649001 640.105993 853.966896 646.705104 864.542241 654.813268 870.428744 659.328449 878.267434 660.394367 885.136019 657.609806L933.599364 638.057993 970.523247 702.025057 929.293773 734.29004C923.497095 738.823186 920.502943 746.069034 921.407177 753.380753 922.395247 761.309268 922.838381 767.327513 922.838381 772.890648 922.838381 778.441806 922.395247 784.460051 921.407177 792.394554 920.502943 799.688309 923.491106 806.928168 929.275808 811.467303L970.409469 843.732285 933.479598 907.717315ZM1002.96189 815.988473 964.241516 785.615794C964.588837 781.088636 964.75651 776.950718 964.75651 772.890648 964.75651 768.830578 964.588837 764.69266 964.241516 760.165502L1003.141539 729.726952C1015.693025 719.798344 1019.02851 702.432262 1011.004182 688.311841L965.642779 609.727326C959.870054 599.816683 949.198896 593.660706 937.791177 593.660706 933.701165 593.660706 929.700978 594.433198 925.868463 595.972192L880.15375 614.422157C873.033656 609.625525 865.686007 605.331911 858.140744 601.583233L851.260182 552.880356C851.206288 552.539022 851.152393 552.197689 851.086522 551.862344 848.134288 536.490367 834.714498 525.340145 819.168861 525.340145L728.535878 525.340145C712.726756 525.340145 699.312954 536.676005 696.564323 552.880356L689.677773 601.565268C682.042685 605.349876 674.671083 609.637502 667.622849 614.404192L621.506919 595.798531C617.842077 594.415233 613.991598 593.708613 610.075247 593.708613 598.619621 593.708613 587.930498 599.846625 582.13382 609.799186L536.850264 688.263935C528.831925 702.066975 532.02968 719.433057 544.754826 729.786835L583.469212 760.153525C583.163808 764.117782 582.954218 768.447326 582.954218 772.890648 582.954218 777.327981 583.163808 781.657525 583.469212 785.615794L544.718896 816.018414C532.137469 825.929057 528.77803 843.307116 536.820323 857.45149L582.16975 936.036005C587.942475 945.952636 598.619621 952.108613 610.033329 952.108613 614.111364 952.108613 618.099574 951.34211 621.950054 949.803116L667.670756 931.347163C674.784861 936.143794 682.13251 940.437408 689.677773 944.186087L696.660136 993.475818C699.312954 1009.093315 712.726756 1020.429174 728.535878 1020.429174L819.168861 1020.429174C834.983972 1020.429174 848.385796 1009.093315 851.140416 992.894952L858.026966 944.204051C865.67403 940.413455 873.039644 936.125829 880.08189 931.365127L926.221773 949.988753C929.880627 951.360075 933.725118 952.060706 937.629492 952.060706 949.103083 952.060706 959.804182 945.910718 965.570919 935.970133L1010.860463 857.505385C1018.872814 843.71432 1015.681048 826.366204 1002.96189 815.988473L1002.96189 815.988473ZM773.848178 815.70283C750.248271 815.70283 731.04378 796.498339 731.04378 772.892444 731.04378 749.280561 750.248271 730.070082 773.848178 730.070082 797.460061 730.070082 816.67054 749.280561 816.67054 772.892444 816.67054 796.498339 797.460061 815.70283 773.848178 815.70283M773.848178 688.151953C727.127429 688.151953 689.125651 726.165708 689.125651 772.892444 689.125651 819.613193 727.127429 857.620959 773.848178 857.620959 820.574915 857.620959 858.588669 819.613193 858.588669 772.892444 858.588669 726.165708 820.574915 688.151953 773.848178 688.151953M732.491153 177.769993 136.080019 177.769993C124.510615 177.769993 115.120954 187.153665 115.120954 198.729057 115.120954 210.304449 124.510615 219.688122 136.080019 219.688122L732.491153 219.688122C744.066545 219.688122 753.450218 210.304449 753.450218 198.729057 753.450218 187.153665 744.066545 177.769993 732.491153 177.769993M753.450218 348.933689C753.450218 337.358297 744.066545 327.974625 732.491153 327.974625L136.080019 327.974625C124.510615 327.974625 115.120954 337.358297 115.120954 348.933689 115.120954 360.509081 124.510615 369.892753 136.080019 369.892753L732.491153 369.892753C744.066545 369.892753 753.450218 360.509081 753.450218 348.933689M136.081815 478.185244C124.506423 478.185244 115.122751 487.568917 115.122751 499.144309 115.122751 510.719701 124.506423 520.103373 136.081815 520.103373L540.370189 520.103373C551.939593 520.103373 561.329254 510.719701 561.329254 499.144309 561.329254 487.568917 551.939593 478.185244 540.370189 478.185244L136.081815 478.185244ZM471.491518 956.37528 78.419237 956.37528C61.598091 956.37528 47.908828 942.686016 47.908828 925.86487L47.908828 72.441712C47.908828 55.608589 61.598091 41.919326 78.419237 41.919326L790.147144 41.919326C806.974278 41.919326 820.66953 55.608589 820.66953 72.441712L820.66953 440.536777C820.66953 452.112168 830.053202 461.495841 841.628594 461.495841 853.197998 461.495841 862.587658 452.112168 862.587658 440.536777L862.587658 72.441712C862.587658 32.499724 830.089132 0.001198 790.147144 0.001198L78.419237 0.001198C38.477249 0.001198 5.990699 32.499724 5.990699 72.441712L5.990699 925.86487C5.990699 965.80087 38.477249 998.293408 78.419237 998.293408L471.491518 998.293408C483.06691 998.293408 492.450582 988.909736 492.450582 977.334344 492.450582 965.758952 483.06691 956.37528 471.491518 956.37528" fill="#e6e6e6" p-id="3557"></path></svg>